<?xml version="1.0"?>
<svg xmlns="http://www.w3.org/2000/svg" xmlns:xlink="http://www.w3.org/1999/xlink" xmlns:svgjs="http://svgjs.com/svgjs" version="1.1" width="512" height="512" x="0" y="0" viewBox="0 0 64 64" style="enable-background:new 0 0 512 512" xml:space="preserve" class=""><g><g xmlns="http://www.w3.org/2000/svg"><g><path d="m27 33.74c0 .94-.15 1.87-.45 2.77l-.77 2.31h-.02c-.46-1.07-1.52-1.82-2.76-1.82h-1c-.06-1.78-1.29-3.32-3.03-3.76l-.97-.24c0 1.1-.9 2-2 2h-4c-1.1 0-2 .9-2 2h-1c-1.2 0-2.23.71-2.71 1.73l-.23-.63c-.04-.12-1.06-2.94-1.06-5.1 0-2.23 1.51-4.16 3.67-4.7l.73-.18c1.45-1.96 3.75-3.12 6.21-3.12h2.65c4.82 0 8.74 3.92 8.74 8.74z" fill="#e54b4b" data-original="#000000" style=""/></g><g><g><path d="m50 17c-1.654 0-3-1.346-3-3s1.346-3 3-3 3 1.346 3 3-1.346 3-3 3z" fill="#e54b4b" data-original="#000000" style=""/></g></g><g><path d="m16 44c1.654 0 3-1.346 3-3h-2c0 .552-.449 1-1 1s-1-.448-1-1h-2c0 1.654 1.346 3 3 3z" fill="#e54b4b" data-original="#000000" style=""/><path d="m45.293 10.707 2.008 2.008c.296-.619.795-1.118 1.414-1.414l-2.008-2.008z" fill="#e54b4b" data-original="#000000" style=""/><path d="m52.699 12.715 3.008-3.008-1.414-1.414-3.008 3.008c.619.296 1.118.795 1.414 1.414z" fill="#e54b4b" data-original="#000000" style=""/><circle cx="34" cy="14" r="1" fill="#e54b4b" data-original="#000000" style=""/><path d="m19.151 21.151c.391-.391.391-1.024 0-1.414-.195-.195-.451-.293-.707-.293s-.512.098-.707.293c-.391.391-.391 1.024 0 1.414.195.195.451.293.707.293s.512-.098.707-.293z" fill="#e54b4b" data-original="#000000" style=""/><circle cx="34" cy="58" r="1" fill="#e54b4b" data-original="#000000" style=""/><path d="m49.556 50.556c-.256 0-.512.098-.707.293-.391.391-.391 1.024 0 1.414.195.195.451.293.707.293s.512-.098.707-.293c.391-.391.391-1.024 0-1.414-.195-.195-.451-.293-.707-.293z" fill="#e54b4b" data-original="#000000" style=""/><circle cx="56" cy="36" r="1" fill="#e54b4b" data-original="#000000" style=""/><path d="m55.239 27.175c-.157-.38-.227-.783-.215-1.187 4.681-1.969 7.976-6.6 7.976-11.988 0-7.168-5.832-13-13-13-5.397 0-10.034 3.307-11.997 8h-11.003v3.089c0 1.165-.697 2.206-1.825 2.672-1.08.448-2.31.206-3.133-.618l-2.184-2.184-9.899 9.898 2.184 2.185c.396.396.656.902.77 1.443.62-.23 1.273-.375 1.942-.441-.197-.906-.635-1.753-1.298-2.416l-.77-.771 7.071-7.07.77.77c1.399 1.398 3.483 1.81 5.359 1.032 1.831-.755 3.013-2.521 3.013-4.5v-1.089h8.363c-.229.965-.363 1.966-.363 3 0 1.15.165 2.26.447 3.323-1.133-.207-2.285-.323-3.447-.323-6.18 0-11.924 2.988-15.491 8.013.775.022 1.525.141 2.237.352 3.215-4.007 8.063-6.365 13.254-6.365 1.446 0 2.876.19 4.261.548 1.86 3.918 5.613 6.76 10.077 7.333 1.737 2.725 2.662 5.866 2.662 9.119 0 2.885-.727 5.601-2 7.983v-8.983h-8v16.474c-.648.294-1.312.561-2 .773v-23.247h-8v23.729c-.677-.12-1.343-.287-2-.489v-10.24h-2.556c.344-.591.556-1.268.556-2 0-2.206-1.794-4-4-4h-.143c-.415-1.8-1.789-3.264-3.645-3.729l-.323-.08c-.353-1.262-1.515-2.191-2.889-2.191h-1v2h1c.551 0 1 .448 1 1s-.449 1-1 1h-4c-1.302 0-2.402.839-2.816 2h-.184c-2.206 0-4 1.794-4 4s1.794 4 4 4h.685c.467.979 1.152 1.833 1.996 2.497l-.269 1.345c-.159.794-.775 1.41-1.569 1.569l-2.412.482c-3.726.747-6.431 4.045-6.431 7.845v5.262h40v-3.089c0-1.165.697-2.206 1.826-2.672 1.078-.449 2.309-.207 3.132.618l2.184 2.184 9.899-9.898-2.184-2.185c-.824-.823-1.066-2.054-.598-3.183.446-1.078 1.487-1.775 2.652-1.775h3.089v-14h-3.089c-1.165 0-2.206-.697-2.672-1.825zm-6.239-4.175v1.949c-2.283-.207-4.366-1.111-6.034-2.501l1.377-1.377-1.414-1.414-1.377 1.377c-1.391-1.667-2.295-3.751-2.502-6.034h1.95v-2h-1.949c.207-2.283 1.111-4.366 2.502-6.034l1.377 1.377 1.414-1.414-1.377-1.377c1.667-1.391 3.75-2.294 6.033-2.501v1.949h2v-1.949c2.283.207 4.366 1.111 6.034 2.501l-1.377 1.377 1.414 1.414 1.377-1.377c1.391 1.667 2.295 3.751 2.502 6.034h-1.95v2h1.949c-.207 2.283-1.111 4.366-2.502 6.034l-1.377-1.377-1.414 1.414 1.377 1.377c-1.667 1.391-3.751 2.294-6.034 2.501v-1.949zm-6 14h4v9.932c-1.141 1.354-2.494 2.519-4 3.464zm-10-6h4v21.719c-.976.174-1.975.281-3 .281-.335 0-.667-.021-1-.041zm-4 30h-7.612l3.025-9.075c2.668.649 4.587 3.047 4.587 5.813zm-9.873-5.713 1.682 1.121-1.31 3.929-1.356-4.067zm1.873-6.603c-.194-.244-.348-.522-.412-.842l-.269-1.345c.24-.189.468-.39.681-.608zm-.832 1.982c.464.343 1.005.589 1.596.707l.678.136-.978 2.933-3.596-2.397zm-2.738 3.489-.844.845h-1.171l-.845-.845 1.43-.953zm-4.557 1.132.983.984-1.356 4.067-1.31-3.929zm2.848 1.713h.559l1.333 4h-3.225zm11.279-6.18c-.74-.43-1.556-.75-2.431-.925l-1.569-.314v-5.581h4zm-2-10.82c0 1.103-.897 2-2 2h-.08c.047-.328.08-.66.08-1v-3c1.103 0 2 .897 2 2zm-16 2c-1.103 0-2-.897-2-2s.897-2 2-2v3c0 .34.033.672.08 1zm2-1v-4c0-.552.449-1 1-1h4c1.222 0 2.275-.734 2.742-1.784 1.33.34 2.258 1.533 2.258 2.907v3.877c0 2.757-2.243 5-5 5s-5-2.243-5-5zm5 7c.877 0 1.713-.169 2.487-.465l.14.7c.06.3.162.582.283.852l-2.91 1.747-2.911-1.746c.121-.271.223-.553.283-.852l.14-.7c.775.295 1.611.464 2.488.464zm-5.764 3.373c.591-.119 1.133-.364 1.596-.707l2.299 1.379-3.596 2.397-.978-2.933zm-7.236 6.365c0-2.766 1.919-5.164 4.587-5.814l3.025 9.076h-7.612zm56-16.738h-1.089c-1.979 0-3.745 1.183-4.519 3.058-.759 1.83-.347 3.916 1.051 5.314l.77.771-7.071 7.07-.77-.77c-1.398-1.398-3.484-1.81-5.359-1.032-1.83.755-3.013 2.522-3.013 4.5v1.089h-8v-3.262c0-1.092-.23-2.14-.637-3.1 1.194.231 2.408.362 3.637.362 10.477 0 19-8.523 19-19 0-3.185-.795-6.271-2.294-9.036.806-.044 1.591-.158 2.351-.342.054.458.167.915.354 1.364.755 1.831 2.521 3.014 4.5 3.014h1.089z" fill="#e54b4b" data-original="#000000" style=""/><path d="m29 23h2v2h-2z" fill="#e54b4b" data-original="#000000" style=""/><path d="m33 23h2v2h-2z" fill="#e54b4b" data-original="#000000" style=""/><path d="m37 23h2v2h-2z" fill="#e54b4b" data-original="#000000" style=""/></g></g></g></svg>
