<svg height="448pt" viewBox="-60 0 448 448" width="448pt" xmlns="http://www.w3.org/2000/svg"><path d="m232 80c22.089844 0 40-17.910156 40-40s-17.910156-40-40-40-40 17.910156-40 40c.027344 22.082031 17.917969 39.972656 40 40zm0-64c13.253906 0 24 10.746094 24 24s-10.746094 24-24 24-24-10.746094-24-24 10.746094-24 24-24zm0 0"/><path d="m40 176h16v16h-16zm0 0"/><path d="m80 256h16v16h-16zm0 0"/><path d="m0 176h16v16h-16zm0 0"/><path d="m80 96h16v16h-16zm0 0"/><path d="m40 96h16v16h-16zm0 0"/><path d="m40 256h16v16h-16zm0 0"/><path d="m317.0625 406.59375-12.671875-4.195312 6.898437-103.375c.570313-8.714844-1.730468-17.378907-6.546874-24.664063l-48.742188-64.40625v-17.953125h48c13.253906 0 24-10.746094 24-24s-10.746094-24-24-24h-41.222656l-6.890625-41.3125c-.089844-.339844-.207031-.675781-.351563-1-.109375-.40625-.25-.804688-.421875-1.191406-.273437-.511719-.597656-.996094-.96875-1.441406-.574219-.851563-1.375-1.527344-2.3125-1.941407-.28125-.191406-.574219-.367187-.878906-.519531-.9375-.386719-1.941406-.585938-2.953125-.59375h-136v16h59.113281l-41.417969 24.839844c-14.300781 7.28125-21.042968 23.992187-15.800781 39.160156h-33.894531v16h40.152344l11.046875 27.542969c3.445312 8.550781 11.292969 14.53125 20.449219 15.585937 9.15625 1.054688 18.15625-2.988281 23.453124-10.53125 5.296876-7.546875 6.039063-17.382812 1.9375-25.636718l-12.910156-25.816407 27.871094-15.542969v54.140626l-7.679688 33.945312-3.863281 10.3125h-60.457031v16h54.457031l-11.714843 31.199219-92.140626-12.160157c-.347656-.046874-.699218-.070312-1.050781-.070312-11.746093-.027344-21.773437 8.472656-23.671875 20.0625l-5.765625 34.625c-.644531 3.878906 1.628907 7.652344 5.359375 8.894531l18.199219 6.074219c6.851563 2.296875 14.390625-.285156 18.398437-6.296875l9.523438-14.328125 80.621094 18.398438c.386718.089843.777344.148437 1.167968.175781 13.960938 1.050781 27.460938-5.25 35.617188-16.628907.226562-.3125.429688-.640624.601562-.984374l25.917969-50.335938 12.664063 9.503906 6.128906 126.832032c1.492188 12.015624 11.707031 21.039062 23.816406 21.039062h41.871094c4.417969 0 8-3.582031 8-8v-18.230469c0-6.886719-4.40625-13-10.9375-15.175781zm-75.839844-294.59375 6.890625 41.3125c.640625 3.855469 3.976563 6.6875 7.886719 6.6875h48c4.417969 0 8 3.582031 8 8s-3.582031 8-8 8h-65.449219l-12.796875-64zm-91.621094 50.878906c-3.746093 2.082032-5.183593 6.746094-3.265624 10.578125l16.335937 32.664063c1.519531 3.003906 1.261719 6.597656-.664063 9.359375-1.929687 2.757812-5.214843 4.234375-8.558593 3.84375s-6.203125-2.585938-7.441407-5.714844l-16.878906-42.195313c-3.148437-7.949218.464844-16.976562 8.230469-20.558593l54.640625-32.726563v21.167969zm46.039063 170.21875c-4.871094 6.335938-12.511719 9.914063-20.496094 9.597656l-85.359375-19.496093c-3.242187-.753907-6.605468.585937-8.441406 3.359375l-12.609375 18.929687-11.71875-3.921875 4.648437-27.878906c.597657-3.703125 3.707032-6.484375 7.457032-6.671875l97.832031 12.945313c3.6875.492187 7.230469-1.628907 8.542969-5.113282l20.121094-53.671875 26.269531 21.015625zm116.359375 98.902344h-33.871094c-3.828125.042969-7.140625-2.644531-7.890625-6.398438l-6.238281-129.984374c-.117188-2.382813-1.289062-4.589844-3.199219-6.015626l-59.855469-44.890624 6.863282-30.304688c.128906-.578125.191406-1.171875.191406-1.765625v-100.640625h1.441406l14.71875 73.601562c.761719 3.722657 4.039063 6.398438 7.839844 6.398438h8v20.640625c0 1.730469.5625 3.414063 1.601562 4.800781l50 65.992188c2.753907 4.296875 4.046876 9.371094 3.695313 14.460937l-7.296875 109.578125c-.238281 3.628906 2.003906 6.960938 5.457031 8.113282l18.542969 6.183593zm0 0"/></svg>