<?xml version="1.0" encoding="iso-8859-1"?>
<!-- Generator: Adobe Illustrator 19.0.0, SVG Export Plug-In . SVG Version: 6.00 Build 0)  -->
<svg version="1.1" id="Capa_1" xmlns="http://www.w3.org/2000/svg" xmlns:xlink="http://www.w3.org/1999/xlink" x="0px" y="0px"
	 viewBox="0 0 480.32 480.32" style="enable-background:new 0 0 480.32 480.32;" xml:space="preserve">
<g>
	<g>
		<circle cx="232.159" cy="116.32" r="12"/>
	</g>
</g>
<g>
	<g>
		<circle cx="176.159" cy="116.32" r="12"/>
	</g>
</g>
<g>
	<g>
		<path d="M395.223,216.976c-3.887-17.068-20.875-27.753-37.943-23.866c-1.314,0.299-2.608,0.682-3.873,1.146l-3.024-3.024
			c-4.526-4.569-10.673-7.168-17.104-7.232c-13.742-0.058-24.958,10.979-25.12,24.72v7.6h-8
			c-18.999,0.03-35.355,13.421-39.136,32.04c-0.288,0-0.568-0.04-0.864-0.04h-16v-16c24.507-12.059,40.021-37.007,40-64.32v-7.68h8
			c13.228-0.066,23.934-10.772,24-24c0-13.255-10.745-24-24-24h-8V56c-0.035-30.913-25.087-55.965-56-56h-48
			c-30.913,0.035-55.965,25.087-56,56v56.32h-8c-13.255,0-24,10.745-24,24c0.074,13.224,10.776,23.926,24,24h8V168
			c-0.014,27.305,15.5,52.242,40,64.296v16h-16c-2.968,0-5.848,0.168-8.8,0.44c-45.058,4.359-79.381,42.316-79.2,87.584v136
			c0,4.418,3.582,8,8,8h272c30.913-0.035,55.965-25.087,56-56V279.304c14.31-3.834,24.194-16.89,24-31.704
			C420.141,232.777,409.734,219.997,395.223,216.976z M284.159,128.32h8c4.418,0,8,3.582,8,8c0.005,2.158-0.88,4.221-2.448,5.704
			c-1.463,1.487-3.466,2.315-5.552,2.296h-8V128.32z M124.159,144.32h-8c-2.156,0.007-4.218-0.879-5.696-2.448
			c-1.493-1.459-2.325-3.465-2.304-5.552c0-4.418,3.582-8,8-8h8V144.32z M300.159,232.32h8v16
			c-0.009,4.519-0.448,9.028-1.312,13.464c-9.096-5.738-19.179-9.734-29.736-11.784C279.95,239.599,289.377,232.367,300.159,232.32z
			 M276.159,266.216c9.221,2.121,17.925,6.065,25.6,11.6c-5.536,12.272-14.406,22.744-25.6,30.224V266.216z M260.159,264.32v16
			c0.005,2.158-0.88,4.221-2.448,5.704c-1.463,1.487-3.466,2.315-5.552,2.296c-4.418,0-8-3.582-8-8v-16H260.159z M232.495,300.576
			c0.955-1.052,1.853-2.155,2.688-3.304c6.505,6.606,16.273,8.796,24.976,5.6v13.232c-7.696,2.781-15.817,4.207-24,4.216h-32
			c-9.702-0.005-18.447-5.852-22.16-14.816C197.832,316.196,219.028,314.128,232.495,300.576z M180.863,278.08
			c-0.47-1.884-0.706-3.818-0.704-5.76v-34.192c5.246,1.222,10.613,1.85,16,1.872h16c5.387-0.022,10.754-0.65,16-1.872v34.192
			c-0.006,13.255-10.755,23.995-24.01,23.99C193.12,296.305,183.514,288.785,180.863,278.08z M140.159,56
			c0.026-22.08,17.92-39.974,40-40h48c22.08,0.026,39.974,17.92,40,40v13.008l-18.344-18.344c-1.5-1.5-3.534-2.344-5.656-2.344h-80
			c-2.122,0-4.156,0.844-5.656,2.344l-18.344,18.344V56z M140.159,168V91.632l27.312-27.312h73.376l27.312,27.312V168
			c0.055,22.827-13.789,43.39-34.96,51.928c-6.69,2.683-13.832,4.065-21.04,4.072h-16c-7.192-0.005-14.316-1.381-20.992-4.056
			C153.973,211.417,140.108,190.844,140.159,168z M100.159,464.32h-24v-128c-0.12-33.635,23.176-62.825,56-70.168v58.4
			c0.032,13.903-5.773,27.182-16,36.6V328.32h-16V464.32z M292.159,464.32h-176v-83.464c19.855-11.802,32.018-33.198,32-56.296
			v-60.24h16v8c0.017,2.69,0.312,5.371,0.88,8h-0.88v16c0.026,22.08,17.92,39.974,40,40h32c8.318-0.016,16.592-1.222,24.568-3.584
			c2.482,20.034,14.084,37.796,31.432,48.12V464.32z M332.159,464.32h-24v-136h-16v32.84c-9.714-8.979-15.427-21.475-15.864-34.696
			c16.191-8.323,29.405-21.459,37.824-37.6c11.612,13.082,18.029,29.964,18.04,47.456V464.32z M332.159,240.32v45.6
			c-3.381-4.812-7.238-9.272-11.512-13.312c2.318-7.888,3.5-16.066,3.512-24.288v-16h9.136c0.73,2.807,1.844,5.499,3.312,8H332.159z
			 M333.159,216.32h-9v-7.6c0.044-4.851,4.005-8.751,8.856-8.72c2.283-0.042,4.478,0.879,6.048,2.536l0.88,0.888
			C336.698,207.128,334.373,211.547,333.159,216.32z M355.783,210.72l0.12-0.08c2.481-1.529,5.341-2.333,8.256-2.32
			c8.837,0,16,7.163,16,16s-7.163,16-16,16s-16-7.163-16-16C348.103,218.754,351.006,213.577,355.783,210.72z M388.159,264.32
			c-4.418,0-8,3.582-8,8v152c-0.021,19.002-13.387,35.375-32,39.2V251.872c14.983,8.924,34.363,4.013,43.287-10.97
			c1.387-2.328,2.468-4.825,3.217-7.43c5.896,2.551,9.653,8.426,9.496,14.848C404.159,257.157,396.996,264.32,388.159,264.32z"/>
	</g>
</g>
<g>
	<g>
		<path d="M204.159,160.32v-32h-16v40c0,4.418,3.582,8,8,8h24v-16H204.159z"/>
	</g>
</g>
<g>
	<g>
		<path d="M222.527,186.344c-4.868,4.896-11.495,7.639-18.4,7.616c-6.858,0.014-13.434-2.724-18.256-7.6l-11.344,11.28
			c7.817,7.907,18.481,12.346,29.6,12.32l0.032,0c11.139,0.026,21.826-4.404,29.68-12.304L222.527,186.344z"/>
	</g>
</g>
<g>
</g>
<g>
</g>
<g>
</g>
<g>
</g>
<g>
</g>
<g>
</g>
<g>
</g>
<g>
</g>
<g>
</g>
<g>
</g>
<g>
</g>
<g>
</g>
<g>
</g>
<g>
</g>
<g>
</g>
</svg>
