<?xml version="1.0" encoding="iso-8859-1"?>
<!-- Generator: Adobe Illustrator 19.0.0, SVG Export Plug-In . SVG Version: 6.00 Build 0)  -->
<svg version="1.1" id="Capa_1" xmlns="http://www.w3.org/2000/svg" xmlns:xlink="http://www.w3.org/1999/xlink" x="0px" y="0px"
	 viewBox="0 0 512 512" style="enable-background:new 0 0 512 512;" xml:space="preserve">
<g>
	<g>
		<path d="M219.366,215.834L151.1,147.567c-3.337-3.337-8.73-3.337-12.066,0c-3.336,3.337-3.336,8.73,0,12.066L207.3,227.9
			c1.664,1.664,3.849,2.5,6.033,2.5c2.185,0,4.369-0.836,6.033-2.5C222.703,224.563,222.703,219.17,219.366,215.834z"/>
	</g>
</g>
<g>
	<g>
		<path d="M219.366,147.567c-3.337-3.337-8.73-3.337-12.066,0l-68.267,68.267c-3.336,3.337-3.336,8.73,0,12.066
			c1.664,1.664,3.849,2.5,6.033,2.5s4.369-0.836,6.033-2.5l68.267-68.267C222.703,156.297,222.703,150.904,219.366,147.567z"/>
	</g>
</g>
<g>
	<g>
		<path d="M372.966,420.634L338.833,386.5c-3.337-3.337-8.73-3.337-12.066,0c-3.336,3.337-3.336,8.73,0,12.066L360.9,432.7
			c1.664,1.664,3.849,2.5,6.033,2.5c2.185,0,4.369-0.836,6.033-2.5C376.303,429.363,376.303,423.97,372.966,420.634z"/>
	</g>
</g>
<g>
	<g>
		<path d="M372.966,386.5c-3.337-3.337-8.73-3.337-12.066,0l-34.133,34.133c-3.336,3.337-3.336,8.73,0,12.066
			c1.664,1.664,3.849,2.5,6.033,2.5c2.185,0,4.369-0.836,6.033-2.5l34.133-34.133C376.303,395.23,376.303,389.837,372.966,386.5z"/>
	</g>
</g>
<g>
	<g>
		<path d="M187.733,349.867c-18.825,0-34.133,15.309-34.133,34.133c0,18.825,15.309,34.133,34.133,34.133
			s34.133-15.309,34.133-34.133C221.867,365.175,206.558,349.867,187.733,349.867z M187.733,401.067
			c-9.412,0-17.067-7.654-17.067-17.067c0-9.412,7.654-17.067,17.067-17.067S204.8,374.588,204.8,384
			C204.8,393.412,197.146,401.067,187.733,401.067z"/>
	</g>
</g>
<g>
	<g>
		<path d="M324.267,281.6c-18.825,0-34.133,15.309-34.133,34.133c0,18.825,15.309,34.133,34.133,34.133s34.133-15.309,34.133-34.133
			C358.4,296.909,343.091,281.6,324.267,281.6z M324.267,332.8c-9.412,0-17.067-7.654-17.067-17.067
			c0-9.412,7.654-17.067,17.067-17.067s17.067,7.654,17.067,17.067C341.333,325.146,333.679,332.8,324.267,332.8z"/>
	</g>
</g>
<g>
	<g>
		<path d="M315.733,162.133c-4.71,0-8.533,3.814-8.533,8.533c0,65.877-53.589,119.467-119.467,119.467
			c-4.71,0-8.533,3.814-8.533,8.533s3.823,8.533,8.533,8.533c75.281,0,136.533-61.252,136.533-136.533
			C324.267,165.948,320.444,162.133,315.733,162.133z"/>
	</g>
</g>
<g>
	<g>
		<path d="M355.9,198.767l-34.133-34.133c-3.337-3.337-8.73-3.337-12.066,0l-34.133,34.133c-3.337,3.336-3.337,8.73,0,12.066
			c3.336,3.337,8.73,3.337,12.066,0l28.1-28.1l28.1,28.1c1.664,1.664,3.849,2.5,6.033,2.5c2.185,0,4.369-0.836,6.033-2.5
			C359.236,207.497,359.236,202.103,355.9,198.767z"/>
	</g>
</g>
<g>
	<g>
		<path d="M328.277,25.6h-21.837c-6.349,0-12.416-3.089-16.23-8.269C282.223,6.485,269.431,0,256,0
			c-13.431,0-26.223,6.485-34.21,17.331c-3.814,5.18-9.882,8.269-16.23,8.269h-21.837c-16.614,0-30.123,13.517-30.123,30.123V102.4
			c0,4.719,3.823,8.533,8.533,8.533h187.733c4.71,0,8.533-3.814,8.533-8.533V55.723C358.4,39.117,344.892,25.6,328.277,25.6z
			 M341.333,93.867H170.667V55.723c0-7.194,5.862-13.056,13.056-13.056h21.837c11.75,0,22.955-5.683,29.978-15.215
			c4.855-6.605,12.314-10.385,20.463-10.385c8.149,0,15.607,3.78,20.471,10.385c7.014,9.532,18.219,15.215,29.969,15.215h21.837
			c7.194,0,13.056,5.862,13.056,13.056V93.867z"/>
	</g>
</g>
<g>
	<g>
		<path d="M409.6,42.667h-59.733c-4.71,0-8.533,3.814-8.533,8.533v42.667H170.667V51.2c0-4.719-3.823-8.533-8.533-8.533H102.4
			c-23.526,0-42.667,19.14-42.667,42.667v384C59.733,492.86,78.874,512,102.4,512h307.2c23.526,0,42.667-19.14,42.667-42.667v-384
			C452.267,61.807,433.126,42.667,409.6,42.667z M435.2,469.333c0,14.114-11.486,25.6-25.6,25.6H102.4
			c-14.114,0-25.6-11.486-25.6-25.6v-384c0-14.114,11.486-25.6,25.6-25.6h51.2V102.4c0,4.719,3.823,8.533,8.533,8.533h187.733
			c4.71,0,8.533-3.814,8.533-8.533V59.733h51.2c14.114,0,25.6,11.486,25.6,25.6V469.333z"/>
	</g>
</g>
<g>
	<g>
		<path d="M392.533,76.8h-42.667c-4.71,0-8.533,3.814-8.533,8.533v8.533H170.667v-8.533c0-4.719-3.823-8.533-8.533-8.533h-42.667
			c-14.114,0-25.6,11.486-25.6,25.6v349.867c0,14.114,11.486,25.6,25.6,25.6h273.067c14.114,0,25.6-11.486,25.6-25.6V102.4
			C418.133,88.286,406.647,76.8,392.533,76.8z M401.067,452.267c0,4.71-3.831,8.533-8.533,8.533H119.467
			c-4.702,0-8.533-3.823-8.533-8.533V102.4c0-4.71,3.831-8.533,8.533-8.533H153.6v8.533c0,4.719,3.823,8.533,8.533,8.533h187.733
			c4.71,0,8.533-3.814,8.533-8.533v-8.533h34.133c4.702,0,8.533,3.823,8.533,8.533V452.267z"/>
	</g>
</g>
<g>
	<g>
		<path d="M264.576,34.133h-17.152c-9.387,0-17.024,7.637-17.024,17.024v17.152c0,9.387,7.637,17.024,17.024,17.024h17.152
			c9.387,0,17.024-7.637,17.024-17.024V51.157C281.6,41.771,273.963,34.133,264.576,34.133z M247.467,68.309L247.424,51.2
			l17.109-0.043l0.009,17.109L247.467,68.309z"/>
	</g>
</g>
<g>
</g>
<g>
</g>
<g>
</g>
<g>
</g>
<g>
</g>
<g>
</g>
<g>
</g>
<g>
</g>
<g>
</g>
<g>
</g>
<g>
</g>
<g>
</g>
<g>
</g>
<g>
</g>
<g>
</g>
</svg>
